<svg version="1.2" xmlns="http://www.w3.org/2000/svg" viewBox="0 0 250 250" width="250" height="250">
	<title>dark-logo</title>
	<style>
		.s0 { fill: #000000 } 
		.s1 { fill: #eb8020 } 
	</style>
	<path id="&lt;Path&gt;" class="s0" d="m36.3 152.1c5.9-22.7 16.7-42.6 34.9-57.7q15.2-12.8 34.9-15.9c9.7-1.5 18.1 1.5 25.3 7.7 3.7 3.3 7.8 4.6 12.5 4.3 12.1-1 24.2-2.2 36.4-3.4 13.5-1.3 27.6-1.3 41.3-0.3-15.3-38.3-52.6-65.4-96.4-65.4-57.3 0-103.7 46.5-103.7 103.8 0 17.9 4.6 34.8 12.6 49.5-0.5-7.2 0.2-14.9 2.2-22.6z"/>
	<path id="&lt;Path&gt;" class="s0" d="m229 125.2c0-13.2-2.5-25.8-7-37.4-0.2 0-0.5 0-0.8 0.1q-21.3 3.9-42.6 7.9c-5.9 1.1-11.9 2.4-17.9 3.5-5.6 1-11.7 1.5-16.5 5.1-3.8 2.9-5.6 7.2-7.7 11.4-2.2 4.4-4.9 8.4-7.8 12.4-3.1 4.4-8.7 9.8-8 15.7 1 9.5 14.7 13.9 21.7 17.6 14.8 8 22.8 21.3 17.1 38.2-4.6 13.7-13 23.6-25.9 28.9 53.4-4.3 95.4-48.9 95.4-103.4z"/>
	<path id="&lt;Path&gt;" class="s1" d="m119.9 98.8c0 4.8-3.9 8.7-8.7 8.7-4.8 0-8.8-3.9-8.8-8.7 0-4.8 4-8.8 8.8-8.8 4.8 0 8.7 4 8.7 8.8z"/>
	<path id="&lt;Compound Path&gt;" fill-rule="evenodd" class="s0" d="m111.2 109.3c-5.8 0-10.5-4.7-10.5-10.5 0-5.8 4.7-10.6 10.5-10.6 5.8 0 10.5 4.8 10.5 10.6 0 5.8-4.7 10.5-10.5 10.5zm0-17.5c-3.8 0-7 3.1-7 7 0 3.8 3.2 6.9 7 6.9 3.8 0 7-3.1 7-6.9 0-3.9-3.2-7-7-7z"/>
	<path id="Shape 1" class="s0" d=""/>
	<path id="&lt;Path&gt;" class="s0" d="m104.2 122.5h-3.5v-47.4h3.5z"/>
</svg>