<svg version="1.2" xmlns="http://www.w3.org/2000/svg" viewBox="0 0 700 320" width="700" height="320">
	<title>dark-logo</title>
	<style>
		.s0 { fill: #000000 }
		.s1 { fill: #21409b }
		.s2 { fill: #eb8020 }
	</style>
	<path id="&lt;Compound Path&gt;" fill-rule="evenodd" class="s0" d="m266.3 147.4h-2.3v4.8h-1.1v-11.2h3.4c2.6 0 3.7 1.4 3.7 3.2 0 1.8-1.1 3.2-3.7 3.2zm0-0.9c1.9 0 2.6-0.9 2.6-2.3 0-1.4-0.7-2.2-2.6-2.2h-2.3v4.5z"/>
	<path id="&lt;Compound Path&gt;" fill-rule="evenodd" class="s0" d="m279.7 152.3c-3.2 0-5.5-2.4-5.5-5.7 0-3.3 2.3-5.7 5.5-5.7 3.1 0 5.5 2.4 5.5 5.7 0 3.3-2.4 5.7-5.5 5.7zm0-1c2.4 0 4.3-1.8 4.3-4.7 0-2.9-1.9-4.7-4.3-4.7-2.5 0-4.4 1.8-4.4 4.7 0 2.9 1.9 4.7 4.4 4.7z"/>
	<path id="&lt;Compound Path&gt;" class="s0" d="m293.4 152.3c-2.3 0-3.7-1.3-3.8-3h1.2c0.1 0.9 0.8 2 2.6 2 1.5 0 2.4-0.9 2.4-2 0-3.3-6.1-1.2-6.1-5.4 0-1.7 1.4-3 3.6-3 2.1 0 3.4 1.2 3.6 2.7h-1.3c-0.1-0.8-0.8-1.7-2.4-1.7-1.3-0.1-2.4 0.7-2.4 2 0 3.2 6.2 1.2 6.2 5.3 0 1.6-1.3 3.1-3.6 3.1z"/>
	<path id="&lt;Compound Path&gt;" class="s0" d="m301.9 141h1.1v11.2h-1.1z"/>
	<path id="&lt;Compound Path&gt;" class="s0" d="m307.5 141h7.3v1h-3.1v10.2h-1.1v-10.2h-3.1z"/>
	<path id="&lt;Compound Path&gt;" class="s0" d="m319.3 141h1.1v11.2h-1.1z"/>
	<path id="&lt;Compound Path&gt;" class="s0" d="m333.4 141h1.2l-4.2 11.2h-1.3l-4.3-11.2h1.3l3.6 10z"/>
	<path id="&lt;Compound Path&gt;" class="s0" d="m344.8 141.9h-4.7v4.2h4.3v0.9h-4.3v4.3h4.7v0.9h-5.8v-11.2h5.8z"/>
	<path id="&lt;Compound Path&gt;" fill-rule="evenodd" class="s0" d="m360.8 152.2h-3.9v-11.2h3.8c2.3 0 3.4 1.3 3.4 2.8 0 1.5-0.9 2.3-2 2.6 1.3 0.2 2.3 1.4 2.3 2.8 0 1.7-1.3 3-3.6 3zm-0.2-10.2h-2.6v4h2.6c1.6 0 2.4-0.8 2.4-2.1 0-1.1-0.8-1.9-2.4-1.9zm0.1 4.9h-2.7v4.3h2.7c1.6 0 2.6-0.8 2.6-2.1 0-1.4-1.1-2.2-2.6-2.2z"/>
	<path id="&lt;Compound Path&gt;" class="s0" d="m369.2 141h1.1v7c0 2.4 1.2 3.3 2.9 3.3 1.8 0 2.9-0.9 2.9-3.3v-7h1.2v7c0 3-1.8 4.3-4.1 4.3-2.3 0-4-1.3-4-4.3z"/>
	<path id="&lt;Compound Path&gt;" class="s0" d="m385.9 152.3c-2.3 0-3.7-1.3-3.8-3h1.2c0.1 0.9 0.8 2 2.6 2 1.5 0 2.4-0.9 2.4-2 0-3.3-6.1-1.2-6.1-5.4 0-1.7 1.4-3 3.6-3 2.1 0 3.4 1.2 3.6 2.7h-1.2c-0.2-0.8-0.9-1.7-2.5-1.7-1.3-0.1-2.4 0.7-2.4 2 0 3.2 6.2 1.2 6.2 5.3 0 1.6-1.3 3.1-3.6 3.1z"/>
	<path id="&lt;Compound Path&gt;" class="s0" d="m394.4 141h1.1v11.2h-1.1z"/>
	<path id="&lt;Compound Path&gt;" class="s0" d="m409.2 141v11.2h-1.1l-6.2-9.4v9.4h-1.1v-11.2h1.1l6.2 9.4v-9.4z"/>
	<path id="&lt;Compound Path&gt;" class="s0" d="m420.3 141.9h-4.7v4.2h4.2v0.9h-4.2v4.3h4.7v0.9h-5.8v-11.2h5.8z"/>
	<path id="&lt;Compound Path&gt;" class="s0" d="m428.7 152.3c-2.3 0-3.7-1.3-3.8-3h1.2c0.1 0.9 0.8 2 2.6 2 1.5 0 2.4-0.9 2.4-2 0-3.3-6.1-1.2-6.1-5.4 0-1.7 1.4-3 3.6-3 2.1 0 3.4 1.2 3.5 2.7h-1.2c-0.1-0.8-0.8-1.7-2.4-1.7-1.3-0.1-2.4 0.7-2.4 2 0 3.2 6.1 1.2 6.1 5.3 0 1.6-1.2 3.1-3.5 3.1z"/>
	<path id="&lt;Compound Path&gt;" class="s0" d="m440.5 152.3c-2.2 0-3.7-1.3-3.7-3h1.2c0 0.9 0.7 2 2.5 2 1.6 0 2.5-0.9 2.5-2 0-3.3-6.1-1.2-6.1-5.4 0-1.7 1.4-3 3.5-3 2.2 0 3.4 1.2 3.6 2.7h-1.2c-0.1-0.8-0.9-1.7-2.4-1.7-1.3-0.1-2.4 0.7-2.4 2 0 3.2 6.1 1.2 6.1 5.3 0 1.6-1.2 3.1-3.6 3.1z"/>
	<path id="&lt;Compound Path&gt;" class="s0" d="m461.1 140.9c2.5 0 4.3 1.2 5.1 3.4h-1.3c-0.6-1.5-1.9-2.4-3.8-2.4-2.4 0-4.3 1.8-4.3 4.7 0 2.9 1.9 4.7 4.3 4.7 1.9 0 3.2-0.9 3.8-2.4h1.3c-0.8 2.1-2.6 3.4-5.1 3.4-3.1 0-5.4-2.4-5.4-5.7 0-3.4 2.3-5.7 5.4-5.7z"/>
	<path id="&lt;Compound Path&gt;" class="s0" d="m477 141.9h-4.7v4.2h4.3v0.9h-4.3v4.3h4.7v0.9h-5.8v-11.2h5.8z"/>
	<path id="&lt;Compound Path&gt;" class="s0" d="m490.4 141v11.2h-1.1l-6.2-9.4v9.4h-1.1v-11.2h1.1l6.2 9.4v-9.4z"/>
	<path id="&lt;Compound Path&gt;" class="s0" d="m494.9 141h7.3v1h-3.1v10.2h-1.1v-10.2h-3.1z"/>
	<path id="&lt;Compound Path&gt;" class="s0" d="m512.6 141.9h-4.7v4.2h4.2v0.9h-4.2v4.3h4.7v0.9h-5.9v-11.2h5.9z"/>
	<path id="&lt;Compound Path&gt;" fill-rule="evenodd" class="s0" d="m520.9 141c2.6 0 3.8 1.4 3.8 3.3 0 1.5-0.9 2.8-2.8 3.1l2.9 4.8h-1.3l-2.8-4.7h-2.1v4.7h-1.1v-11.2zm0 1h-2.2v4.6h2.2c1.9 0 2.7-1 2.7-2.3 0-1.4-0.8-2.3-2.7-2.3z"/>
	<path id="&lt;Compound Path&gt;" class="s0" d="m275.7 110.1l-3.1 5.7v19.3h-9.8v-62.8h9.8v27.4l12.9-27.4h9.9l-13.7 28 13.7 34.8h-10.1z"/>
	<path id="&lt;Compound Path&gt;" class="s0" d="m304.5 72.3h9.8v62.8h-9.8z"/>
	<path id="&lt;Compound Path&gt;" class="s0" d="m348 101.6l-3.6 33.5h-13.5l-7-62.8h9.6l5.2 49.5 4.8-49.5h9.5l4.9 49.9 5.2-49.9h8.6l-7 62.8h-13.1z"/>
	<path id="&lt;Compound Path&gt;" class="s0" d="m381.2 72.3h9.8v62.8h-9.8z"/>
	<path id="&lt;Compound Path&gt;" fill-rule="evenodd" class="s0" d="m434.3 72.3c9.7 0 13.4 6.1 13.4 15.2v6.9c0 9.9-4.5 14.9-14.5 14.9h-7.8v25.8h-4.1v-62.8zm-1.1 33.2c7.3 0 10.4-3.2 10.4-10.9v-7.3c0-6.8-2.3-11.2-9.3-11.2h-8.9v29.4z"/>
	<path id="&lt;Compound Path&gt;" fill-rule="evenodd" class="s0" d="m471.9 72.3c9.4 0 12.8 4.7 12.8 13.4v3.5c0 6.9-1.9 11.1-8.2 12.4 6.8 1.4 9.4 6.4 9.4 13.5v5.5c0 9-4.2 14.5-13.8 14.5h-13.4v-62.8zm-2.1 27.7c7.4 0 10.8-2 10.8-9.9v-4.1c0-6.5-2.1-9.9-8.8-9.9h-9v23.9zm2.4 31.3c6.9 0 9.6-3.8 9.6-10.8v-5.7c0-8.2-3.7-11-11.2-11h-7.8v27.5z"/>
	<path id="&lt;Compound Path&gt;" class="s0" d="m524 87.6v5.2h-4v-5.4c0-6.8-2.6-11.9-9.5-11.9-6.9 0-9.5 5.1-9.5 11.9v32.6c0 6.7 2.6 11.8 9.5 11.8 6.9 0 9.5-5.1 9.5-11.8v-7.4h4v7.1c0 9.1-4 15.9-13.5 15.9-9.6 0-13.6-6.8-13.6-15.9v-32.1c0-9 4-15.8 13.6-15.8 9.5 0 13.5 6.8 13.5 15.8z"/>
	<path id="&lt;Path&gt;" class="s1" d="m41.3 137.1c5.9-22.7 16.7-42.6 34.9-57.7q15.2-12.8 34.9-15.9c9.7-1.5 18.1 1.5 25.3 7.7 3.7 3.3 7.8 4.6 12.5 4.3 12.1-1 24.2-2.2 36.4-3.4 13.5-1.3 27.6-1.3 41.3-0.3-15.3-38.3-52.6-65.4-96.4-65.4-57.3 0-103.7 46.5-103.7 103.8 0 17.9 4.6 34.8 12.6 49.5-0.5-7.2 0.2-14.9 2.2-22.6z"/>
	<path id="&lt;Path&gt;" class="s1" d="m234 110.2c0-13.2-2.5-25.8-7-37.4-0.2 0-0.5 0-0.8 0.1q-21.3 3.9-42.6 7.9c-5.9 1.1-11.9 2.4-17.9 3.5-5.6 1-11.7 1.5-16.5 5.1-3.8 2.9-5.6 7.2-7.7 11.4-2.2 4.4-4.9 8.4-7.8 12.4-3.1 4.4-8.7 9.8-8 15.7 1 9.5 14.7 13.9 21.7 17.6 14.8 8 22.8 21.3 17.1 38.2-4.6 13.7-13 23.6-25.9 28.9 53.4-4.3 95.4-48.9 95.4-103.4z"/>
	<path id="&lt;Path&gt;" class="s2" d="m124.9 83.8c0 4.8-3.9 8.7-8.7 8.7-4.8 0-8.8-3.9-8.8-8.7 0-4.8 4-8.8 8.8-8.8 4.8 0 8.7 4 8.7 8.8z"/>
	<path id="&lt;Compound Path&gt;" fill-rule="evenodd" class="s1" d="m116.2 94.3c-5.8 0-10.5-4.7-10.5-10.5 0-5.8 4.7-10.6 10.5-10.6 5.8 0 10.5 4.8 10.5 10.6 0 5.8-4.7 10.5-10.5 10.5zm0-17.5c-3.8 0-7 3.1-7 7 0 3.8 3.2 6.9 7 6.9 3.8 0 7-3.1 7-6.9 0-3.9-3.2-7-7-7z"/>
	<path id="&lt;Path&gt;" class="s1" d="m109.2 107.5h-3.5v-47.4h3.5z"/>
</svg>
